<mxfile host="app.diagrams.net" modified="2023-06-20T09:37:52.358Z" agent="Mozilla/5.0 (Macintosh; Intel Mac OS X 10_15_7) AppleWebKit/537.36 (KHTML, like Gecko) Chrome/114.0.0.0 Safari/537.36" etag="Kd3MSIlnakUZeFSmtXxX" version="21.5.0" type="github">
  <diagram name="Page-1" id="AjozA_RbJ2yxUwryUioa">
    <mxGraphModel dx="2970" dy="1313" grid="1" gridSize="10" guides="1" tooltips="1" connect="1" arrows="1" fold="1" page="1" pageScale="1" pageWidth="850" pageHeight="1100" math="0" shadow="0">
      <root>
        <mxCell id="0" />
        <mxCell id="1" parent="0" />
        <mxCell id="_3_pNUlGzNJkoDfwL2cG-1" value="&lt;font style=&quot;font-size: 20px;&quot;&gt;Applicant &lt;br&gt;(Advocate)&amp;nbsp;&amp;nbsp;&lt;/font&gt;" style="swimlane;horizontal=0;whiteSpace=wrap;html=1;startSize=79;fillColor=#d5e8d4;strokeColor=#000000;strokeWidth=2;" parent="1" vertex="1">
          <mxGeometry x="-800" y="9" width="2669" height="510.995" as="geometry" />
        </mxCell>
        <mxCell id="_3_pNUlGzNJkoDfwL2cG-2" value="&lt;span style=&quot;&quot;&gt;Applicant initiates&lt;br&gt;&amp;nbsp;the process&lt;br&gt;    &lt;/span&gt;" style="rounded=0;whiteSpace=wrap;html=1;fillColor=#F6EFDA;strokeColor=#c5bfae;" parent="_3_pNUlGzNJkoDfwL2cG-1" vertex="1">
          <mxGeometry x="290" y="174.995" width="160" height="114.5" as="geometry" />
        </mxCell>
        <mxCell id="NsM2Cb3-0BHwD_RPNt5x-1" style="edgeStyle=orthogonalEdgeStyle;rounded=0;orthogonalLoop=1;jettySize=auto;html=1;entryX=0.5;entryY=0;entryDx=0;entryDy=0;fillColor=#fad7ac;strokeColor=#b46504;" edge="1" parent="_3_pNUlGzNJkoDfwL2cG-1" source="_3_pNUlGzNJkoDfwL2cG-5" target="_3_pNUlGzNJkoDfwL2cG-2">
          <mxGeometry relative="1" as="geometry" />
        </mxCell>
        <mxCell id="_3_pNUlGzNJkoDfwL2cG-5" value="&lt;blockquote style=&quot;margin: 0 0 0 40px; border: none; padding: 0px;&quot;&gt;&lt;/blockquote&gt;&lt;blockquote style=&quot;margin: 0 0 0 40px; border: none; padding: 0px;&quot;&gt;&lt;/blockquote&gt;&lt;span style=&quot;background-color: initial;&quot;&gt;&lt;div style=&quot;&quot;&gt;&lt;ul&gt;&lt;li&gt;Spousal consent / affidavit&lt;/li&gt;&lt;li&gt;CR12 for companies&lt;/li&gt;&lt;li&gt;Additional provisions&lt;/li&gt;&lt;/ul&gt;&lt;/div&gt;&lt;/span&gt;" style="shape=note;whiteSpace=wrap;html=1;backgroundOutline=1;darkOpacity=0.05;size=17;align=left;fillColor=#e1d5e7;strokeColor=#9673a6;opacity=50;" parent="_3_pNUlGzNJkoDfwL2cG-1" vertex="1">
          <mxGeometry x="130" y="20" width="200" height="100" as="geometry" />
        </mxCell>
        <mxCell id="_3_pNUlGzNJkoDfwL2cG-6" value="&lt;font style=&quot;font-size: 15px;&quot; color=&quot;#ffffff&quot;&gt;Start&lt;/font&gt;" style="ellipse;whiteSpace=wrap;html=1;aspect=fixed;fillColor=#008a00;strokeColor=#005700;fontColor=#ffffff;" parent="_3_pNUlGzNJkoDfwL2cG-1" vertex="1">
          <mxGeometry x="110" y="190.31" width="82.25" height="82.25" as="geometry" />
        </mxCell>
        <mxCell id="_3_pNUlGzNJkoDfwL2cG-7" style="edgeStyle=orthogonalEdgeStyle;rounded=0;orthogonalLoop=1;jettySize=auto;html=1;entryX=0;entryY=0.5;entryDx=0;entryDy=0;strokeColor=#d79b00;fillColor=#ffe6cc;strokeWidth=2;" parent="_3_pNUlGzNJkoDfwL2cG-1" source="_3_pNUlGzNJkoDfwL2cG-6" target="_3_pNUlGzNJkoDfwL2cG-2" edge="1">
          <mxGeometry relative="1" as="geometry" />
        </mxCell>
        <mxCell id="_3_pNUlGzNJkoDfwL2cG-15" style="edgeStyle=orthogonalEdgeStyle;rounded=0;orthogonalLoop=1;jettySize=auto;html=1;entryX=0.5;entryY=0;entryDx=0;entryDy=0;dashed=1;dashPattern=12 12;fillColor=#fff2cc;strokeColor=#d6b656;endArrow=none;endFill=0;startArrow=blockThin;startFill=1;" parent="_3_pNUlGzNJkoDfwL2cG-1" edge="1">
          <mxGeometry relative="1" as="geometry">
            <mxPoint x="2559.0000000000005" y="291.9399999999996" as="sourcePoint" />
            <mxPoint x="2559.8749999999995" y="361.6199999999999" as="targetPoint" />
          </mxGeometry>
        </mxCell>
        <mxCell id="NsM2Cb3-0BHwD_RPNt5x-12" value="End" style="ellipse;whiteSpace=wrap;html=1;aspect=fixed;fillColor=#e51400;fontColor=#ffffff;strokeColor=none;" vertex="1" parent="_3_pNUlGzNJkoDfwL2cG-1">
          <mxGeometry x="1530" y="281.62" width="55.75" height="55.75" as="geometry" />
        </mxCell>
        <mxCell id="NsM2Cb3-0BHwD_RPNt5x-13" value="Not Paid" style="edgeStyle=orthogonalEdgeStyle;rounded=0;orthogonalLoop=1;jettySize=auto;html=1;entryX=0;entryY=0.5;entryDx=0;entryDy=0;fillColor=#fff2cc;strokeColor=#d6b656;strokeWidth=2;" edge="1" parent="_3_pNUlGzNJkoDfwL2cG-1" source="NsM2Cb3-0BHwD_RPNt5x-14" target="NsM2Cb3-0BHwD_RPNt5x-12">
          <mxGeometry relative="1" as="geometry" />
        </mxCell>
        <mxCell id="NsM2Cb3-0BHwD_RPNt5x-14" value="Stamp Duty&lt;br&gt;&amp;nbsp;Payment&lt;font style=&quot;font-size: 13px;&quot; color=&quot;#ffffff&quot;&gt;&lt;span style=&quot;&quot;&gt;&lt;br&gt;&lt;/span&gt;&lt;/font&gt;" style="strokeWidth=2;html=1;shape=mxgraph.flowchart.decision;whiteSpace=wrap;fillColor=#008a00;strokeColor=#005700;fontColor=#ffffff;" vertex="1" parent="_3_pNUlGzNJkoDfwL2cG-1">
          <mxGeometry x="1241" y="240.995" width="125" height="137" as="geometry" />
        </mxCell>
        <mxCell id="NsM2Cb3-0BHwD_RPNt5x-35" value="End" style="ellipse;whiteSpace=wrap;html=1;aspect=fixed;fillColor=#e51400;fontColor=#ffffff;strokeColor=#B20000;" vertex="1" parent="_3_pNUlGzNJkoDfwL2cG-1">
          <mxGeometry x="1920" y="221" width="80" height="80" as="geometry" />
        </mxCell>
        <mxCell id="_3_pNUlGzNJkoDfwL2cG-18" value="&lt;font style=&quot;font-size: 20px;&quot;&gt;Registrar&lt;/font&gt;" style="swimlane;horizontal=0;whiteSpace=wrap;html=1;startSize=78;fillColor=#d5e8d4;strokeColor=#000000;strokeWidth=2;" parent="1" vertex="1">
          <mxGeometry x="-800" y="1398" width="2670" height="450" as="geometry" />
        </mxCell>
        <mxCell id="_3_pNUlGzNJkoDfwL2cG-27" value="" style="edgeStyle=orthogonalEdgeStyle;rounded=0;orthogonalLoop=1;jettySize=auto;html=1;entryX=0;entryY=0.5;entryDx=0;entryDy=0;strokeWidth=2;fillColor=#fff2cc;strokeColor=#d6b656;" parent="_3_pNUlGzNJkoDfwL2cG-18" source="_3_pNUlGzNJkoDfwL2cG-28" target="NsM2Cb3-0BHwD_RPNt5x-29" edge="1">
          <mxGeometry relative="1" as="geometry">
            <mxPoint x="2239.999999999978" y="216.51499999999942" as="targetPoint" />
          </mxGeometry>
        </mxCell>
        <mxCell id="NsM2Cb3-0BHwD_RPNt5x-32" value="Yes" style="edgeLabel;html=1;align=center;verticalAlign=middle;resizable=0;points=[];" vertex="1" connectable="0" parent="_3_pNUlGzNJkoDfwL2cG-27">
          <mxGeometry x="-0.2654" y="-3" relative="1" as="geometry">
            <mxPoint as="offset" />
          </mxGeometry>
        </mxCell>
        <mxCell id="_3_pNUlGzNJkoDfwL2cG-28" value="Approve" style="rhombus;whiteSpace=wrap;html=1;fillColor=#fff2cc;strokeColor=#d6b656;" parent="_3_pNUlGzNJkoDfwL2cG-18" vertex="1">
          <mxGeometry x="1880" y="131.51" width="160" height="170" as="geometry" />
        </mxCell>
        <mxCell id="NsM2Cb3-0BHwD_RPNt5x-26" style="edgeStyle=orthogonalEdgeStyle;rounded=0;orthogonalLoop=1;jettySize=auto;html=1;entryX=0;entryY=0.5;entryDx=0;entryDy=0;strokeWidth=2;fillColor=#ffe6cc;strokeColor=#d79b00;" edge="1" parent="_3_pNUlGzNJkoDfwL2cG-18" source="NsM2Cb3-0BHwD_RPNt5x-24" target="_3_pNUlGzNJkoDfwL2cG-28">
          <mxGeometry relative="1" as="geometry" />
        </mxCell>
        <mxCell id="NsM2Cb3-0BHwD_RPNt5x-24" value="&lt;span style=&quot;&quot;&gt;Approve, Reject or put on hold&lt;br&gt;    &lt;/span&gt;" style="rounded=0;whiteSpace=wrap;html=1;fillColor=#F6EFDA;strokeColor=#fcd19c;" vertex="1" parent="_3_pNUlGzNJkoDfwL2cG-18">
          <mxGeometry x="1230" y="162.01" width="150" height="109" as="geometry" />
        </mxCell>
        <mxCell id="NsM2Cb3-0BHwD_RPNt5x-29" value="" style="ellipse;whiteSpace=wrap;html=1;aspect=fixed;fillColor=#e51400;fontColor=#ffffff;strokeColor=#B20000;" vertex="1" parent="_3_pNUlGzNJkoDfwL2cG-18">
          <mxGeometry x="2200" y="176" width="80" height="80" as="geometry" />
        </mxCell>
        <mxCell id="NsM2Cb3-0BHwD_RPNt5x-30" value="&lt;span style=&quot;color: rgb(0, 0, 0); font-family: Helvetica; font-size: 12px; font-style: normal; font-variant-ligatures: normal; font-variant-caps: normal; font-weight: 400; letter-spacing: normal; orphans: 2; text-align: center; text-indent: 0px; text-transform: none; widows: 2; word-spacing: 0px; -webkit-text-stroke-width: 0px; background-color: rgb(251, 251, 251); text-decoration-thickness: initial; text-decoration-style: initial; text-decoration-color: initial; float: none; display: inline !important;&quot;&gt;An entry is made in the register &lt;br&gt;n the encumbrance section&lt;br&gt;&lt;p style=&quot;line-height:1.38;margin-left: 18pt;text-align: justify;margin-top:12pt;margin-bottom:12pt;&quot; dir=&quot;ltr&quot;&gt;&lt;/p&gt;&lt;div&gt;&lt;/div&gt;&lt;span style=&quot;font-size: 11pt; font-family: &amp;quot;Times New Roman&amp;quot;; background-color: transparent; font-variant-numeric: normal; font-variant-east-asian: normal; font-variant-alternates: normal; vertical-align: baseline;&quot;&gt;The variation does not revoke the charge entry. &lt;br&gt;The two entries are to be revoked together through a discharge application&lt;/span&gt;&lt;p&gt;&lt;/p&gt;&lt;span id=&quot;docs-internal-guid-269ac3c2-7fff-f057-7309-88c6087a591d&quot;&gt;&lt;/span&gt;&lt;/span&gt;" style="text;whiteSpace=wrap;html=1;" vertex="1" parent="_3_pNUlGzNJkoDfwL2cG-18">
          <mxGeometry x="2330" y="163.51" width="320" height="138" as="geometry" />
        </mxCell>
        <mxCell id="NsM2Cb3-0BHwD_RPNt5x-33" value="" style="shape=curlyBracket;whiteSpace=wrap;html=1;rounded=1;labelPosition=left;verticalLabelPosition=middle;align=right;verticalAlign=middle;" vertex="1" parent="_3_pNUlGzNJkoDfwL2cG-18">
          <mxGeometry x="2310" y="162.01" width="20" height="120" as="geometry" />
        </mxCell>
        <mxCell id="_3_pNUlGzNJkoDfwL2cG-39" value="&lt;font style=&quot;font-size: 20px;&quot;&gt;Assessor&lt;br&gt;&lt;/font&gt;" style="swimlane;horizontal=0;whiteSpace=wrap;html=1;startSize=79;fillColor=#d5e8d4;strokeColor=#050505;strokeWidth=2;" parent="1" vertex="1">
          <mxGeometry x="-800" y="540" width="2669" height="430" as="geometry" />
        </mxCell>
        <mxCell id="NsM2Cb3-0BHwD_RPNt5x-7" value="Yes" style="edgeStyle=orthogonalEdgeStyle;rounded=0;orthogonalLoop=1;jettySize=auto;html=1;entryX=0.5;entryY=0;entryDx=0;entryDy=0;fillColor=#ffe6cc;strokeColor=#d79b00;strokeWidth=2;" edge="1" parent="_3_pNUlGzNJkoDfwL2cG-39" source="_3_pNUlGzNJkoDfwL2cG-44" target="_3_pNUlGzNJkoDfwL2cG-48">
          <mxGeometry relative="1" as="geometry" />
        </mxCell>
        <mxCell id="NsM2Cb3-0BHwD_RPNt5x-10" value="" style="edgeStyle=orthogonalEdgeStyle;rounded=0;orthogonalLoop=1;jettySize=auto;html=1;strokeWidth=2;fillColor=#ffe6cc;strokeColor=#d79b00;" edge="1" parent="_3_pNUlGzNJkoDfwL2cG-39" source="_3_pNUlGzNJkoDfwL2cG-44" target="NsM2Cb3-0BHwD_RPNt5x-9">
          <mxGeometry relative="1" as="geometry" />
        </mxCell>
        <mxCell id="NsM2Cb3-0BHwD_RPNt5x-11" value="No" style="edgeLabel;html=1;align=center;verticalAlign=middle;resizable=0;points=[];" vertex="1" connectable="0" parent="NsM2Cb3-0BHwD_RPNt5x-10">
          <mxGeometry x="-0.284" y="3" relative="1" as="geometry">
            <mxPoint x="-1" as="offset" />
          </mxGeometry>
        </mxCell>
        <mxCell id="_3_pNUlGzNJkoDfwL2cG-44" value="Amount&lt;br&gt;Varied ?" style="rhombus;whiteSpace=wrap;html=1;fillColor=#008a00;strokeColor=#005700;rounded=0;fontColor=#ffffff;" parent="_3_pNUlGzNJkoDfwL2cG-39" vertex="1">
          <mxGeometry x="498.75" y="50" width="120" height="120" as="geometry" />
        </mxCell>
        <mxCell id="NsM2Cb3-0BHwD_RPNt5x-4" value="Amount varied by increasing the principal amount" style="text;html=1;strokeColor=none;fillColor=none;align=center;verticalAlign=middle;whiteSpace=wrap;rounded=0;" vertex="1" parent="_3_pNUlGzNJkoDfwL2cG-39">
          <mxGeometry x="220" y="85" width="180" height="30" as="geometry" />
        </mxCell>
        <mxCell id="NsM2Cb3-0BHwD_RPNt5x-5" value="" style="shape=curlyBracket;whiteSpace=wrap;html=1;rounded=1;flipH=1;labelPosition=right;verticalLabelPosition=middle;align=left;verticalAlign=middle;" vertex="1" parent="_3_pNUlGzNJkoDfwL2cG-39">
          <mxGeometry x="420" y="40" width="20" height="120" as="geometry" />
        </mxCell>
        <mxCell id="_3_pNUlGzNJkoDfwL2cG-48" value="&lt;span style=&quot;&quot;&gt;Stamp duty is assessed on the additional principal amount.&lt;br&gt;    &lt;/span&gt;" style="rounded=0;whiteSpace=wrap;html=1;fillColor=#F6EFDA;strokeColor=#fcd19c;" parent="_3_pNUlGzNJkoDfwL2cG-39" vertex="1">
          <mxGeometry x="440" y="289" width="237.5" height="120" as="geometry" />
        </mxCell>
        <mxCell id="NsM2Cb3-0BHwD_RPNt5x-9" value="Stamp duty &lt;br&gt;is nominal" style="whiteSpace=wrap;html=1;fillColor=#fff2cc;strokeColor=#d6b656;rounded=0;" vertex="1" parent="_3_pNUlGzNJkoDfwL2cG-39">
          <mxGeometry x="800" y="60" width="160" height="100" as="geometry" />
        </mxCell>
        <mxCell id="_3_pNUlGzNJkoDfwL2cG-47" value="&lt;font style=&quot;font-size: 20px;&quot;&gt;I.O&lt;/font&gt;" style="swimlane;horizontal=0;whiteSpace=wrap;html=1;startSize=78;fillColor=#d5e8d4;strokeColor=#000000;strokeWidth=2;" parent="1" vertex="1">
          <mxGeometry x="-800" y="980" width="2669" height="418" as="geometry" />
        </mxCell>
        <mxCell id="_3_pNUlGzNJkoDfwL2cG-20" value="&lt;span style=&quot;&quot;&gt;Approve, Reject or put on hold&lt;br&gt;    &lt;/span&gt;" style="rounded=0;whiteSpace=wrap;html=1;fillColor=#F6EFDA;strokeColor=#fcd19c;" parent="_3_pNUlGzNJkoDfwL2cG-47" vertex="1">
          <mxGeometry x="1230" y="120" width="150" height="109" as="geometry" />
        </mxCell>
        <mxCell id="_3_pNUlGzNJkoDfwL2cG-11" style="edgeStyle=orthogonalEdgeStyle;rounded=0;orthogonalLoop=1;jettySize=auto;html=1;entryX=0.5;entryY=0;entryDx=0;entryDy=0;strokeWidth=2;fillColor=#ffe6cc;strokeColor=#d79b00;" parent="1" source="_3_pNUlGzNJkoDfwL2cG-2" target="_3_pNUlGzNJkoDfwL2cG-44" edge="1">
          <mxGeometry relative="1" as="geometry">
            <mxPoint x="-183.99999999999977" y="232.43499999999995" as="targetPoint" />
          </mxGeometry>
        </mxCell>
        <mxCell id="NsM2Cb3-0BHwD_RPNt5x-15" style="edgeStyle=orthogonalEdgeStyle;rounded=0;orthogonalLoop=1;jettySize=auto;html=1;entryX=0;entryY=0.5;entryDx=0;entryDy=0;entryPerimeter=0;strokeWidth=2;fillColor=#ffe6cc;strokeColor=#d79b00;" edge="1" parent="1" source="_3_pNUlGzNJkoDfwL2cG-48" target="NsM2Cb3-0BHwD_RPNt5x-14">
          <mxGeometry relative="1" as="geometry">
            <mxPoint x="320" y="398.5" as="targetPoint" />
            <Array as="points">
              <mxPoint x="380" y="889" />
              <mxPoint x="380" y="318" />
            </Array>
          </mxGeometry>
        </mxCell>
        <mxCell id="NsM2Cb3-0BHwD_RPNt5x-17" style="edgeStyle=orthogonalEdgeStyle;rounded=0;orthogonalLoop=1;jettySize=auto;html=1;entryX=0.5;entryY=0;entryDx=0;entryDy=0;entryPerimeter=0;strokeWidth=2;fillColor=#ffe6cc;strokeColor=#d79b00;" edge="1" parent="1" source="NsM2Cb3-0BHwD_RPNt5x-9" target="NsM2Cb3-0BHwD_RPNt5x-14">
          <mxGeometry relative="1" as="geometry">
            <mxPoint x="240" y="348.5" as="targetPoint" />
          </mxGeometry>
        </mxCell>
        <mxCell id="NsM2Cb3-0BHwD_RPNt5x-23" style="edgeStyle=orthogonalEdgeStyle;rounded=0;orthogonalLoop=1;jettySize=auto;html=1;entryX=0.5;entryY=0;entryDx=0;entryDy=0;strokeWidth=2;fillColor=#ffe6cc;strokeColor=#d79b00;" edge="1" parent="1" source="NsM2Cb3-0BHwD_RPNt5x-14" target="_3_pNUlGzNJkoDfwL2cG-20">
          <mxGeometry relative="1" as="geometry" />
        </mxCell>
        <mxCell id="NsM2Cb3-0BHwD_RPNt5x-25" value="" style="edgeStyle=orthogonalEdgeStyle;rounded=0;orthogonalLoop=1;jettySize=auto;html=1;strokeWidth=2;fillColor=#ffe6cc;strokeColor=#d79b00;" edge="1" parent="1" source="_3_pNUlGzNJkoDfwL2cG-20" target="NsM2Cb3-0BHwD_RPNt5x-24">
          <mxGeometry relative="1" as="geometry" />
        </mxCell>
        <mxCell id="NsM2Cb3-0BHwD_RPNt5x-34" style="edgeStyle=orthogonalEdgeStyle;rounded=0;orthogonalLoop=1;jettySize=auto;html=1;entryX=0.5;entryY=1;entryDx=0;entryDy=0;strokeWidth=2;fillColor=#ffe6cc;strokeColor=#d79b00;" edge="1" parent="1" source="_3_pNUlGzNJkoDfwL2cG-28" target="NsM2Cb3-0BHwD_RPNt5x-35">
          <mxGeometry relative="1" as="geometry">
            <mxPoint x="1160" y="330" as="targetPoint" />
          </mxGeometry>
        </mxCell>
        <mxCell id="NsM2Cb3-0BHwD_RPNt5x-36" value="No" style="edgeLabel;html=1;align=center;verticalAlign=middle;resizable=0;points=[];" vertex="1" connectable="0" parent="NsM2Cb3-0BHwD_RPNt5x-34">
          <mxGeometry x="-0.8751" y="-3" relative="1" as="geometry">
            <mxPoint y="1" as="offset" />
          </mxGeometry>
        </mxCell>
      </root>
    </mxGraphModel>
  </diagram>
</mxfile>
